<svg xmlns="http://www.w3.org/2000/svg" width="1060" height="410" viewBox="0 0 1060 410" role="img">
  <style>
    .title { font: 700 22px Arial, sans-serif; fill: #1f2933; }
    .label { font: 600 14px Arial, sans-serif; fill: #1f2933; }
    .small { font: 12px Arial, sans-serif; fill: #52616b; }
    .axis { stroke: #1f2933; stroke-width: 1.4; }
    .grid { stroke: #d9e2ec; stroke-width: 1; }
    .box { fill: white; stroke: #d9e2ec; stroke-width: 1.3; rx: 8; }
    .arrow { stroke: #52616b; stroke-width: 2; fill: none; marker-end: url(#arrowhead); }
  </style>
  <defs>
    <marker id="arrowhead" markerWidth="8" markerHeight="8" refX="7" refY="3.5" orient="auto">
      <polygon points="0 0, 8 3.5, 0 7" fill="#52616b"/>
    </marker>
  </defs>
  <rect width="100%" height="100%" fill="#f8fafc"/>
<text x="34.0" y="40.0" class="title" text-anchor="start">Genotype imputation fills untyped markers</text>
<rect x="50.0" y="82.0" width="260.0" height="245.0" rx="8.0" fill="white" stroke="#d9e2ec" stroke-width="1.3"/>
<text x="80.0" y="118.0" class="label" text-anchor="start">Observed study genotypes</text>
<text x="80.0" y="145.0" class="small" text-anchor="start">Typed SNPs are sparse</text>
<line x1="88.0" y1="185.0" x2="268.0" y2="185.0" class="grid"/>
<circle cx="100.0" cy="185.0" r="8.0" fill="#0f766e" opacity="0.85" stroke="none"/>
<circle cx="160.0" cy="185.0" r="8.0" fill="#0f766e" opacity="0.85" stroke="none"/>
<circle cx="240.0" cy="185.0" r="8.0" fill="#2563eb" opacity="0.85" stroke="none"/>
<circle cx="130.0" cy="185.0" r="4.0" fill="#d9e2ec" opacity="0.65" stroke="none"/>
<circle cx="190.0" cy="185.0" r="4.0" fill="#d9e2ec" opacity="0.65" stroke="none"/>
<circle cx="215.0" cy="185.0" r="4.0" fill="#d9e2ec" opacity="0.65" stroke="none"/>
<line x1="88.0" y1="215.0" x2="268.0" y2="215.0" class="grid"/>
<circle cx="100.0" cy="215.0" r="8.0" fill="#d97706" opacity="0.85" stroke="none"/>
<circle cx="160.0" cy="215.0" r="8.0" fill="#d97706" opacity="0.85" stroke="none"/>
<circle cx="240.0" cy="215.0" r="8.0" fill="#0f766e" opacity="0.85" stroke="none"/>
<circle cx="130.0" cy="215.0" r="4.0" fill="#d9e2ec" opacity="0.65" stroke="none"/>
<circle cx="190.0" cy="215.0" r="4.0" fill="#d9e2ec" opacity="0.65" stroke="none"/>
<circle cx="215.0" cy="215.0" r="4.0" fill="#d9e2ec" opacity="0.65" stroke="none"/>
<line x1="88.0" y1="245.0" x2="268.0" y2="245.0" class="grid"/>
<circle cx="100.0" cy="245.0" r="8.0" fill="#2563eb" opacity="0.85" stroke="none"/>
<circle cx="160.0" cy="245.0" r="8.0" fill="#2563eb" opacity="0.85" stroke="none"/>
<circle cx="240.0" cy="245.0" r="8.0" fill="#d97706" opacity="0.85" stroke="none"/>
<circle cx="130.0" cy="245.0" r="4.0" fill="#d9e2ec" opacity="0.65" stroke="none"/>
<circle cx="190.0" cy="245.0" r="4.0" fill="#d9e2ec" opacity="0.65" stroke="none"/>
<circle cx="215.0" cy="245.0" r="4.0" fill="#d9e2ec" opacity="0.65" stroke="none"/>
<line x1="88.0" y1="275.0" x2="268.0" y2="275.0" class="grid"/>
<circle cx="100.0" cy="275.0" r="8.0" fill="#0f766e" opacity="0.85" stroke="none"/>
<circle cx="160.0" cy="275.0" r="8.0" fill="#0f766e" opacity="0.85" stroke="none"/>
<circle cx="240.0" cy="275.0" r="8.0" fill="#2563eb" opacity="0.85" stroke="none"/>
<circle cx="130.0" cy="275.0" r="4.0" fill="#d9e2ec" opacity="0.65" stroke="none"/>
<circle cx="190.0" cy="275.0" r="4.0" fill="#d9e2ec" opacity="0.65" stroke="none"/>
<circle cx="215.0" cy="275.0" r="4.0" fill="#d9e2ec" opacity="0.65" stroke="none"/>
<rect x="390.0" y="82.0" width="260.0" height="245.0" rx="8.0" fill="white" stroke="#d9e2ec" stroke-width="1.3"/>
<text x="420.0" y="118.0" class="label" text-anchor="start">Reference panel</text>
<text x="420.0" y="145.0" class="small" text-anchor="start">Dense haplotypes provide context</text>
<line x1="428.0" y1="185.0" x2="608.0" y2="185.0" class="grid"/>
<circle cx="440.0" cy="185.0" r="6.0" fill="#2563eb" opacity="0.80" stroke="none"/>
<circle cx="470.0" cy="185.0" r="6.0" fill="#0f766e" opacity="0.80" stroke="none"/>
<circle cx="500.0" cy="185.0" r="6.0" fill="#d97706" opacity="0.80" stroke="none"/>
<circle cx="530.0" cy="185.0" r="6.0" fill="#dc2626" opacity="0.80" stroke="none"/>
<circle cx="560.0" cy="185.0" r="6.0" fill="#2563eb" opacity="0.80" stroke="none"/>
<circle cx="590.0" cy="185.0" r="6.0" fill="#0f766e" opacity="0.80" stroke="none"/>
<line x1="428.0" y1="215.0" x2="608.0" y2="215.0" class="grid"/>
<circle cx="440.0" cy="215.0" r="6.0" fill="#0f766e" opacity="0.80" stroke="none"/>
<circle cx="470.0" cy="215.0" r="6.0" fill="#d97706" opacity="0.80" stroke="none"/>
<circle cx="500.0" cy="215.0" r="6.0" fill="#dc2626" opacity="0.80" stroke="none"/>
<circle cx="530.0" cy="215.0" r="6.0" fill="#2563eb" opacity="0.80" stroke="none"/>
<circle cx="560.0" cy="215.0" r="6.0" fill="#0f766e" opacity="0.80" stroke="none"/>
<circle cx="590.0" cy="215.0" r="6.0" fill="#d97706" opacity="0.80" stroke="none"/>
<line x1="428.0" y1="245.0" x2="608.0" y2="245.0" class="grid"/>
<circle cx="440.0" cy="245.0" r="6.0" fill="#d97706" opacity="0.80" stroke="none"/>
<circle cx="470.0" cy="245.0" r="6.0" fill="#dc2626" opacity="0.80" stroke="none"/>
<circle cx="500.0" cy="245.0" r="6.0" fill="#2563eb" opacity="0.80" stroke="none"/>
<circle cx="530.0" cy="245.0" r="6.0" fill="#0f766e" opacity="0.80" stroke="none"/>
<circle cx="560.0" cy="245.0" r="6.0" fill="#d97706" opacity="0.80" stroke="none"/>
<circle cx="590.0" cy="245.0" r="6.0" fill="#dc2626" opacity="0.80" stroke="none"/>
<line x1="428.0" y1="275.0" x2="608.0" y2="275.0" class="grid"/>
<circle cx="440.0" cy="275.0" r="6.0" fill="#dc2626" opacity="0.80" stroke="none"/>
<circle cx="470.0" cy="275.0" r="6.0" fill="#2563eb" opacity="0.80" stroke="none"/>
<circle cx="500.0" cy="275.0" r="6.0" fill="#0f766e" opacity="0.80" stroke="none"/>
<circle cx="530.0" cy="275.0" r="6.0" fill="#d97706" opacity="0.80" stroke="none"/>
<circle cx="560.0" cy="275.0" r="6.0" fill="#dc2626" opacity="0.80" stroke="none"/>
<circle cx="590.0" cy="275.0" r="6.0" fill="#2563eb" opacity="0.80" stroke="none"/>
<rect x="730.0" y="82.0" width="280.0" height="245.0" rx="8.0" fill="white" stroke="#d9e2ec" stroke-width="1.3"/>
<text x="760.0" y="118.0" class="label" text-anchor="start">Imputed dosage data</text>
<text x="760.0" y="145.0" class="small" text-anchor="start">Untyped variants receive probabilities</text>
<line x1="768.0" y1="185.0" x2="960.0" y2="185.0" class="grid"/>
<circle cx="780.0" cy="185.0" r="7.0" fill="#2563eb" opacity="0.95" stroke="none"/>
<circle cx="812.0" cy="185.0" r="7.0" fill="#0f766e" opacity="0.45" stroke="none"/>
<circle cx="844.0" cy="185.0" r="7.0" fill="#d97706" opacity="0.95" stroke="none"/>
<circle cx="876.0" cy="185.0" r="7.0" fill="#dc2626" opacity="0.45" stroke="none"/>
<circle cx="908.0" cy="185.0" r="7.0" fill="#2563eb" opacity="0.45" stroke="none"/>
<circle cx="940.0" cy="185.0" r="7.0" fill="#0f766e" opacity="0.95" stroke="none"/>
<line x1="768.0" y1="215.0" x2="960.0" y2="215.0" class="grid"/>
<circle cx="780.0" cy="215.0" r="7.0" fill="#0f766e" opacity="0.95" stroke="none"/>
<circle cx="812.0" cy="215.0" r="7.0" fill="#d97706" opacity="0.45" stroke="none"/>
<circle cx="844.0" cy="215.0" r="7.0" fill="#dc2626" opacity="0.95" stroke="none"/>
<circle cx="876.0" cy="215.0" r="7.0" fill="#2563eb" opacity="0.45" stroke="none"/>
<circle cx="908.0" cy="215.0" r="7.0" fill="#0f766e" opacity="0.45" stroke="none"/>
<circle cx="940.0" cy="215.0" r="7.0" fill="#d97706" opacity="0.95" stroke="none"/>
<line x1="768.0" y1="245.0" x2="960.0" y2="245.0" class="grid"/>
<circle cx="780.0" cy="245.0" r="7.0" fill="#d97706" opacity="0.95" stroke="none"/>
<circle cx="812.0" cy="245.0" r="7.0" fill="#dc2626" opacity="0.45" stroke="none"/>
<circle cx="844.0" cy="245.0" r="7.0" fill="#2563eb" opacity="0.95" stroke="none"/>
<circle cx="876.0" cy="245.0" r="7.0" fill="#0f766e" opacity="0.45" stroke="none"/>
<circle cx="908.0" cy="245.0" r="7.0" fill="#d97706" opacity="0.45" stroke="none"/>
<circle cx="940.0" cy="245.0" r="7.0" fill="#dc2626" opacity="0.95" stroke="none"/>
<line x1="768.0" y1="275.0" x2="960.0" y2="275.0" class="grid"/>
<circle cx="780.0" cy="275.0" r="7.0" fill="#dc2626" opacity="0.95" stroke="none"/>
<circle cx="812.0" cy="275.0" r="7.0" fill="#2563eb" opacity="0.45" stroke="none"/>
<circle cx="844.0" cy="275.0" r="7.0" fill="#0f766e" opacity="0.95" stroke="none"/>
<circle cx="876.0" cy="275.0" r="7.0" fill="#d97706" opacity="0.45" stroke="none"/>
<circle cx="908.0" cy="275.0" r="7.0" fill="#dc2626" opacity="0.45" stroke="none"/>
<circle cx="940.0" cy="275.0" r="7.0" fill="#2563eb" opacity="0.95" stroke="none"/>
<line x1="320" y1="205" x2="375" y2="205" class="arrow"/>
<line x1="660" y1="205" x2="715" y2="205" class="arrow"/>
<text x="420.0" y="365.0" class="small" text-anchor="start">After imputation, filter by imputation quality, allele frequency, and ancestry-matched performance.</text>
</svg>
