<svg xmlns="http://www.w3.org/2000/svg" width="1120" height="480" viewBox="0 0 1120 480" role="img">
  <style>
    .title { font: 700 22px Arial, sans-serif; fill: #1f2933; }
    .label { font: 600 14px Arial, sans-serif; fill: #1f2933; }
    .small { font: 12px Arial, sans-serif; fill: #52616b; }
    .axis { stroke: #1f2933; stroke-width: 1.4; }
    .grid { stroke: #d9e2ec; stroke-width: 1; }
    .box { fill: white; stroke: #d9e2ec; stroke-width: 1.3; rx: 8; }
    .arrow { stroke: #52616b; stroke-width: 2; fill: none; marker-end: url(#arrowhead); }
  </style>
  <defs>
    <marker id="arrowhead" markerWidth="8" markerHeight="8" refX="7" refY="3.5" orient="auto">
      <polygon points="0 0, 8 3.5, 0 7" fill="#52616b"/>
    </marker>
  </defs>
  <rect width="100%" height="100%" fill="#f8fafc"/>
<text x="34.0" y="40.0" class="title" text-anchor="start">Multiple testing: why GWAS thresholds are strict</text>
<line x1="84.0" y1="402.0" x2="844.0" y2="402.0" class="axis"/>
<line x1="84.0" y1="402.0" x2="84.0" y2="92.0" class="axis"/>
<text x="464.0" y="438.0" class="small" text-anchor="middle">Many independent SNP tests</text>
<text x="32.0" y="245.0" class="small" text-anchor="start">p-value</text>
<line x1="84" y1="162" x2="844" y2="162" stroke="#dc2626" stroke-width="2" stroke-dasharray="6 5"/>
<text x="834.0" y="152.0" class="small" text-anchor="end">genome-wide threshold</text>
<circle cx="84.0" cy="116.0" r="2.5" fill="#dc2626" opacity="0.72" stroke="none"/>
<circle cx="86.9" cy="158.2" r="2.5" fill="#dc2626" opacity="0.72" stroke="none"/>
<circle cx="89.8" cy="186.0" r="2.5" fill="#64748b" opacity="0.72" stroke="none"/>
<circle cx="92.8" cy="371.1" r="2.5" fill="#64748b" opacity="0.72" stroke="none"/>
<circle cx="95.7" cy="245.8" r="2.5" fill="#64748b" opacity="0.72" stroke="none"/>
<circle cx="98.6" cy="315.3" r="2.5" fill="#64748b" opacity="0.72" stroke="none"/>
<circle cx="101.5" cy="123.1" r="2.5" fill="#dc2626" opacity="0.72" stroke="none"/>
<circle cx="104.5" cy="249.8" r="2.5" fill="#64748b" opacity="0.72" stroke="none"/>
<circle cx="107.4" cy="353.4" r="2.5" fill="#64748b" opacity="0.72" stroke="none"/>
<circle cx="110.3" cy="254.1" r="2.5" fill="#64748b" opacity="0.72" stroke="none"/>
<circle cx="113.2" cy="384.9" r="2.5" fill="#64748b" opacity="0.72" stroke="none"/>
<circle cx="116.2" cy="365.4" r="2.5" fill="#64748b" opacity="0.72" stroke="none"/>
<circle cx="119.1" cy="207.0" r="2.5" fill="#64748b" opacity="0.72" stroke="none"/>
<circle cx="122.0" cy="92.2" r="2.5" fill="#dc2626" opacity="0.72" stroke="none"/>
<circle cx="124.9" cy="326.1" r="2.5" fill="#64748b" opacity="0.72" stroke="none"/>
<circle cx="127.8" cy="131.2" r="2.5" fill="#dc2626" opacity="0.72" stroke="none"/>
<circle cx="130.8" cy="94.9" r="2.5" fill="#dc2626" opacity="0.72" stroke="none"/>
<circle cx="133.7" cy="318.5" r="2.5" fill="#64748b" opacity="0.72" stroke="none"/>
<circle cx="136.6" cy="353.3" r="2.5" fill="#64748b" opacity="0.72" stroke="none"/>
<circle cx="139.5" cy="351.3" r="2.5" fill="#64748b" opacity="0.72" stroke="none"/>
<circle cx="142.5" cy="387.6" r="2.5" fill="#64748b" opacity="0.72" stroke="none"/>
<circle cx="145.4" cy="154.5" r="2.5" fill="#dc2626" opacity="0.72" stroke="none"/>
<circle cx="148.3" cy="117.3" r="2.5" fill="#dc2626" opacity="0.72" stroke="none"/>
<circle cx="151.2" cy="129.4" r="2.5" fill="#dc2626" opacity="0.72" stroke="none"/>
<circle cx="154.2" cy="395.1" r="2.5" fill="#64748b" opacity="0.72" stroke="none"/>
<circle cx="157.1" cy="126.7" r="2.5" fill="#dc2626" opacity="0.72" stroke="none"/>
<circle cx="160.0" cy="141.5" r="2.5" fill="#dc2626" opacity="0.72" stroke="none"/>
<circle cx="162.9" cy="98.2" r="2.5" fill="#dc2626" opacity="0.72" stroke="none"/>
<circle cx="165.8" cy="107.3" r="2.5" fill="#dc2626" opacity="0.72" stroke="none"/>
<circle cx="168.8" cy="103.9" r="2.5" fill="#dc2626" opacity="0.72" stroke="none"/>
<circle cx="171.7" cy="201.4" r="2.5" fill="#64748b" opacity="0.72" stroke="none"/>
<circle cx="174.6" cy="142.6" r="2.5" fill="#dc2626" opacity="0.72" stroke="none"/>
<circle cx="177.5" cy="188.0" r="2.5" fill="#64748b" opacity="0.72" stroke="none"/>
<circle cx="180.5" cy="379.9" r="2.5" fill="#64748b" opacity="0.72" stroke="none"/>
<circle cx="183.4" cy="143.9" r="2.5" fill="#dc2626" opacity="0.72" stroke="none"/>
<circle cx="186.3" cy="344.5" r="2.5" fill="#64748b" opacity="0.72" stroke="none"/>
<circle cx="189.2" cy="320.9" r="2.5" fill="#64748b" opacity="0.72" stroke="none"/>
<circle cx="192.2" cy="268.2" r="2.5" fill="#64748b" opacity="0.72" stroke="none"/>
<circle cx="195.1" cy="270.5" r="2.5" fill="#64748b" opacity="0.72" stroke="none"/>
<circle cx="198.0" cy="330.7" r="2.5" fill="#64748b" opacity="0.72" stroke="none"/>
<circle cx="200.9" cy="274.0" r="2.5" fill="#64748b" opacity="0.72" stroke="none"/>
<circle cx="203.8" cy="163.1" r="2.5" fill="#64748b" opacity="0.72" stroke="none"/>
<circle cx="206.8" cy="194.1" r="2.5" fill="#64748b" opacity="0.72" stroke="none"/>
<circle cx="209.7" cy="167.6" r="2.5" fill="#64748b" opacity="0.72" stroke="none"/>
<circle cx="212.6" cy="216.2" r="2.5" fill="#64748b" opacity="0.72" stroke="none"/>
<circle cx="215.5" cy="398.1" r="2.5" fill="#64748b" opacity="0.72" stroke="none"/>
<circle cx="218.5" cy="224.3" r="2.5" fill="#64748b" opacity="0.72" stroke="none"/>
<circle cx="221.4" cy="113.6" r="2.5" fill="#dc2626" opacity="0.72" stroke="none"/>
<circle cx="224.3" cy="239.8" r="2.5" fill="#64748b" opacity="0.72" stroke="none"/>
<circle cx="227.2" cy="343.9" r="2.5" fill="#64748b" opacity="0.72" stroke="none"/>
<circle cx="230.2" cy="230.1" r="2.5" fill="#64748b" opacity="0.72" stroke="none"/>
<circle cx="233.1" cy="309.7" r="2.5" fill="#64748b" opacity="0.72" stroke="none"/>
<circle cx="236.0" cy="120.2" r="2.5" fill="#dc2626" opacity="0.72" stroke="none"/>
<circle cx="238.9" cy="111.3" r="2.5" fill="#dc2626" opacity="0.72" stroke="none"/>
<circle cx="241.8" cy="297.1" r="2.5" fill="#64748b" opacity="0.72" stroke="none"/>
<circle cx="244.8" cy="107.0" r="2.5" fill="#dc2626" opacity="0.72" stroke="none"/>
<circle cx="247.7" cy="185.6" r="2.5" fill="#64748b" opacity="0.72" stroke="none"/>
<circle cx="250.6" cy="211.2" r="2.5" fill="#64748b" opacity="0.72" stroke="none"/>
<circle cx="253.5" cy="152.0" r="2.5" fill="#dc2626" opacity="0.72" stroke="none"/>
<circle cx="256.5" cy="103.3" r="2.5" fill="#dc2626" opacity="0.72" stroke="none"/>
<circle cx="259.4" cy="94.1" r="2.5" fill="#dc2626" opacity="0.72" stroke="none"/>
<circle cx="262.3" cy="387.0" r="2.5" fill="#64748b" opacity="0.72" stroke="none"/>
<circle cx="265.2" cy="305.5" r="2.5" fill="#64748b" opacity="0.72" stroke="none"/>
<circle cx="268.2" cy="387.1" r="2.5" fill="#64748b" opacity="0.72" stroke="none"/>
<circle cx="271.1" cy="244.4" r="2.5" fill="#64748b" opacity="0.72" stroke="none"/>
<circle cx="274.0" cy="387.9" r="2.5" fill="#64748b" opacity="0.72" stroke="none"/>
<circle cx="276.9" cy="359.4" r="2.5" fill="#64748b" opacity="0.72" stroke="none"/>
<circle cx="279.8" cy="283.6" r="2.5" fill="#64748b" opacity="0.72" stroke="none"/>
<circle cx="282.8" cy="254.8" r="2.5" fill="#64748b" opacity="0.72" stroke="none"/>
<circle cx="285.7" cy="249.7" r="2.5" fill="#64748b" opacity="0.72" stroke="none"/>
<circle cx="288.6" cy="161.9" r="2.5" fill="#dc2626" opacity="0.72" stroke="none"/>
<circle cx="291.5" cy="208.6" r="2.5" fill="#64748b" opacity="0.72" stroke="none"/>
<circle cx="294.5" cy="316.1" r="2.5" fill="#64748b" opacity="0.72" stroke="none"/>
<circle cx="297.4" cy="152.5" r="2.5" fill="#dc2626" opacity="0.72" stroke="none"/>
<circle cx="300.3" cy="355.5" r="2.5" fill="#64748b" opacity="0.72" stroke="none"/>
<circle cx="303.2" cy="250.0" r="2.5" fill="#64748b" opacity="0.72" stroke="none"/>
<circle cx="306.2" cy="279.3" r="2.5" fill="#64748b" opacity="0.72" stroke="none"/>
<circle cx="309.1" cy="346.8" r="2.5" fill="#64748b" opacity="0.72" stroke="none"/>
<circle cx="312.0" cy="292.3" r="2.5" fill="#64748b" opacity="0.72" stroke="none"/>
<circle cx="314.9" cy="134.7" r="2.5" fill="#dc2626" opacity="0.72" stroke="none"/>
<circle cx="317.8" cy="168.8" r="2.5" fill="#64748b" opacity="0.72" stroke="none"/>
<circle cx="320.8" cy="92.3" r="2.5" fill="#dc2626" opacity="0.72" stroke="none"/>
<circle cx="323.7" cy="100.5" r="2.5" fill="#dc2626" opacity="0.72" stroke="none"/>
<circle cx="326.6" cy="387.0" r="2.5" fill="#64748b" opacity="0.72" stroke="none"/>
<circle cx="329.5" cy="275.8" r="2.5" fill="#64748b" opacity="0.72" stroke="none"/>
<circle cx="332.5" cy="392.3" r="2.5" fill="#64748b" opacity="0.72" stroke="none"/>
<circle cx="335.4" cy="334.0" r="2.5" fill="#64748b" opacity="0.72" stroke="none"/>
<circle cx="338.3" cy="189.9" r="2.5" fill="#64748b" opacity="0.72" stroke="none"/>
<circle cx="341.2" cy="391.8" r="2.5" fill="#64748b" opacity="0.72" stroke="none"/>
<circle cx="344.2" cy="378.0" r="2.5" fill="#64748b" opacity="0.72" stroke="none"/>
<circle cx="347.1" cy="233.5" r="2.5" fill="#64748b" opacity="0.72" stroke="none"/>
<circle cx="350.0" cy="117.8" r="2.5" fill="#dc2626" opacity="0.72" stroke="none"/>
<circle cx="352.9" cy="190.7" r="2.5" fill="#64748b" opacity="0.72" stroke="none"/>
<circle cx="355.8" cy="143.6" r="2.5" fill="#dc2626" opacity="0.72" stroke="none"/>
<circle cx="358.8" cy="205.3" r="2.5" fill="#64748b" opacity="0.72" stroke="none"/>
<circle cx="361.7" cy="117.6" r="2.5" fill="#dc2626" opacity="0.72" stroke="none"/>
<circle cx="364.6" cy="313.1" r="2.5" fill="#64748b" opacity="0.72" stroke="none"/>
<circle cx="367.5" cy="395.7" r="2.5" fill="#64748b" opacity="0.72" stroke="none"/>
<circle cx="370.5" cy="157.3" r="2.5" fill="#dc2626" opacity="0.72" stroke="none"/>
<circle cx="373.4" cy="333.8" r="2.5" fill="#64748b" opacity="0.72" stroke="none"/>
<circle cx="376.3" cy="273.2" r="2.5" fill="#64748b" opacity="0.72" stroke="none"/>
<circle cx="379.2" cy="241.6" r="2.5" fill="#64748b" opacity="0.72" stroke="none"/>
<circle cx="382.2" cy="373.3" r="2.5" fill="#64748b" opacity="0.72" stroke="none"/>
<circle cx="385.1" cy="209.0" r="2.5" fill="#64748b" opacity="0.72" stroke="none"/>
<circle cx="388.0" cy="346.5" r="2.5" fill="#64748b" opacity="0.72" stroke="none"/>
<circle cx="390.9" cy="102.8" r="2.5" fill="#dc2626" opacity="0.72" stroke="none"/>
<circle cx="393.8" cy="391.3" r="2.5" fill="#64748b" opacity="0.72" stroke="none"/>
<circle cx="396.8" cy="148.6" r="2.5" fill="#dc2626" opacity="0.72" stroke="none"/>
<circle cx="399.7" cy="93.2" r="2.5" fill="#dc2626" opacity="0.72" stroke="none"/>
<circle cx="402.6" cy="365.2" r="2.5" fill="#64748b" opacity="0.72" stroke="none"/>
<circle cx="405.5" cy="315.6" r="2.5" fill="#64748b" opacity="0.72" stroke="none"/>
<circle cx="408.5" cy="301.2" r="2.5" fill="#64748b" opacity="0.72" stroke="none"/>
<circle cx="411.4" cy="329.4" r="2.5" fill="#64748b" opacity="0.72" stroke="none"/>
<circle cx="414.3" cy="209.0" r="2.5" fill="#64748b" opacity="0.72" stroke="none"/>
<circle cx="417.2" cy="127.5" r="2.5" fill="#dc2626" opacity="0.72" stroke="none"/>
<circle cx="420.2" cy="190.6" r="2.5" fill="#64748b" opacity="0.72" stroke="none"/>
<circle cx="423.1" cy="387.6" r="2.5" fill="#64748b" opacity="0.72" stroke="none"/>
<circle cx="426.0" cy="396.3" r="2.5" fill="#64748b" opacity="0.72" stroke="none"/>
<circle cx="428.9" cy="163.3" r="2.5" fill="#64748b" opacity="0.72" stroke="none"/>
<circle cx="431.8" cy="229.1" r="2.5" fill="#64748b" opacity="0.72" stroke="none"/>
<circle cx="434.8" cy="231.7" r="2.5" fill="#64748b" opacity="0.72" stroke="none"/>
<circle cx="437.7" cy="372.3" r="2.5" fill="#64748b" opacity="0.72" stroke="none"/>
<circle cx="440.6" cy="93.7" r="2.5" fill="#dc2626" opacity="0.72" stroke="none"/>
<circle cx="443.5" cy="349.1" r="2.5" fill="#64748b" opacity="0.72" stroke="none"/>
<circle cx="446.5" cy="170.6" r="2.5" fill="#64748b" opacity="0.72" stroke="none"/>
<circle cx="449.4" cy="262.2" r="2.5" fill="#64748b" opacity="0.72" stroke="none"/>
<circle cx="452.3" cy="132.0" r="2.5" fill="#dc2626" opacity="0.72" stroke="none"/>
<circle cx="455.2" cy="118.1" r="2.5" fill="#dc2626" opacity="0.72" stroke="none"/>
<circle cx="458.2" cy="365.8" r="2.5" fill="#64748b" opacity="0.72" stroke="none"/>
<circle cx="461.1" cy="247.9" r="2.5" fill="#64748b" opacity="0.72" stroke="none"/>
<circle cx="464.0" cy="393.3" r="2.5" fill="#64748b" opacity="0.72" stroke="none"/>
<circle cx="466.9" cy="360.1" r="2.5" fill="#64748b" opacity="0.72" stroke="none"/>
<circle cx="469.8" cy="325.3" r="2.5" fill="#64748b" opacity="0.72" stroke="none"/>
<circle cx="472.8" cy="115.1" r="2.5" fill="#dc2626" opacity="0.72" stroke="none"/>
<circle cx="475.7" cy="274.7" r="2.5" fill="#64748b" opacity="0.72" stroke="none"/>
<circle cx="478.6" cy="399.6" r="2.5" fill="#64748b" opacity="0.72" stroke="none"/>
<circle cx="481.5" cy="247.9" r="2.5" fill="#64748b" opacity="0.72" stroke="none"/>
<circle cx="484.5" cy="112.4" r="2.5" fill="#dc2626" opacity="0.72" stroke="none"/>
<circle cx="487.4" cy="149.3" r="2.5" fill="#dc2626" opacity="0.72" stroke="none"/>
<circle cx="490.3" cy="398.3" r="2.5" fill="#64748b" opacity="0.72" stroke="none"/>
<circle cx="493.2" cy="394.8" r="2.5" fill="#64748b" opacity="0.72" stroke="none"/>
<circle cx="496.2" cy="168.6" r="2.5" fill="#64748b" opacity="0.72" stroke="none"/>
<circle cx="499.1" cy="190.7" r="2.5" fill="#64748b" opacity="0.72" stroke="none"/>
<circle cx="502.0" cy="313.6" r="2.5" fill="#64748b" opacity="0.72" stroke="none"/>
<circle cx="504.9" cy="249.4" r="2.5" fill="#64748b" opacity="0.72" stroke="none"/>
<circle cx="507.8" cy="149.5" r="2.5" fill="#dc2626" opacity="0.72" stroke="none"/>
<circle cx="510.8" cy="397.2" r="2.5" fill="#64748b" opacity="0.72" stroke="none"/>
<circle cx="513.7" cy="284.4" r="2.5" fill="#64748b" opacity="0.72" stroke="none"/>
<circle cx="516.6" cy="205.2" r="2.5" fill="#64748b" opacity="0.72" stroke="none"/>
<circle cx="519.5" cy="98.8" r="2.5" fill="#dc2626" opacity="0.72" stroke="none"/>
<circle cx="522.5" cy="250.2" r="2.5" fill="#64748b" opacity="0.72" stroke="none"/>
<circle cx="525.4" cy="325.1" r="2.5" fill="#64748b" opacity="0.72" stroke="none"/>
<circle cx="528.3" cy="147.1" r="2.5" fill="#dc2626" opacity="0.72" stroke="none"/>
<circle cx="531.2" cy="119.0" r="2.5" fill="#dc2626" opacity="0.72" stroke="none"/>
<circle cx="534.2" cy="316.5" r="2.5" fill="#64748b" opacity="0.72" stroke="none"/>
<circle cx="537.1" cy="377.3" r="2.5" fill="#64748b" opacity="0.72" stroke="none"/>
<circle cx="540.0" cy="208.8" r="2.5" fill="#64748b" opacity="0.72" stroke="none"/>
<circle cx="542.9" cy="238.6" r="2.5" fill="#64748b" opacity="0.72" stroke="none"/>
<circle cx="545.8" cy="289.3" r="2.5" fill="#64748b" opacity="0.72" stroke="none"/>
<circle cx="548.8" cy="253.2" r="2.5" fill="#64748b" opacity="0.72" stroke="none"/>
<circle cx="551.7" cy="131.8" r="2.5" fill="#dc2626" opacity="0.72" stroke="none"/>
<circle cx="554.6" cy="177.2" r="2.5" fill="#64748b" opacity="0.72" stroke="none"/>
<circle cx="557.5" cy="155.9" r="2.5" fill="#dc2626" opacity="0.72" stroke="none"/>
<circle cx="560.5" cy="153.1" r="2.5" fill="#dc2626" opacity="0.72" stroke="none"/>
<circle cx="563.4" cy="119.3" r="2.5" fill="#dc2626" opacity="0.72" stroke="none"/>
<circle cx="566.3" cy="213.3" r="2.5" fill="#64748b" opacity="0.72" stroke="none"/>
<circle cx="569.2" cy="160.0" r="2.5" fill="#dc2626" opacity="0.72" stroke="none"/>
<circle cx="572.2" cy="354.7" r="2.5" fill="#64748b" opacity="0.72" stroke="none"/>
<circle cx="575.1" cy="191.8" r="2.5" fill="#64748b" opacity="0.72" stroke="none"/>
<circle cx="578.0" cy="390.6" r="2.5" fill="#64748b" opacity="0.72" stroke="none"/>
<circle cx="580.9" cy="343.4" r="2.5" fill="#64748b" opacity="0.72" stroke="none"/>
<circle cx="583.8" cy="175.5" r="2.5" fill="#64748b" opacity="0.72" stroke="none"/>
<circle cx="586.8" cy="139.8" r="2.5" fill="#dc2626" opacity="0.72" stroke="none"/>
<circle cx="589.7" cy="269.4" r="2.5" fill="#64748b" opacity="0.72" stroke="none"/>
<circle cx="592.6" cy="238.9" r="2.5" fill="#64748b" opacity="0.72" stroke="none"/>
<circle cx="595.5" cy="257.9" r="2.5" fill="#64748b" opacity="0.72" stroke="none"/>
<circle cx="598.5" cy="130.2" r="2.5" fill="#dc2626" opacity="0.72" stroke="none"/>
<circle cx="601.4" cy="256.7" r="2.5" fill="#64748b" opacity="0.72" stroke="none"/>
<circle cx="604.3" cy="327.4" r="2.5" fill="#64748b" opacity="0.72" stroke="none"/>
<circle cx="607.2" cy="230.0" r="2.5" fill="#64748b" opacity="0.72" stroke="none"/>
<circle cx="610.2" cy="171.1" r="2.5" fill="#64748b" opacity="0.72" stroke="none"/>
<circle cx="613.1" cy="377.9" r="2.5" fill="#64748b" opacity="0.72" stroke="none"/>
<circle cx="616.0" cy="183.8" r="2.5" fill="#64748b" opacity="0.72" stroke="none"/>
<circle cx="618.9" cy="400.5" r="2.5" fill="#64748b" opacity="0.72" stroke="none"/>
<circle cx="621.8" cy="305.5" r="2.5" fill="#64748b" opacity="0.72" stroke="none"/>
<circle cx="624.8" cy="92.7" r="2.5" fill="#dc2626" opacity="0.72" stroke="none"/>
<circle cx="627.7" cy="230.7" r="2.5" fill="#64748b" opacity="0.72" stroke="none"/>
<circle cx="630.6" cy="138.2" r="2.5" fill="#dc2626" opacity="0.72" stroke="none"/>
<circle cx="633.5" cy="335.8" r="2.5" fill="#64748b" opacity="0.72" stroke="none"/>
<circle cx="636.5" cy="222.5" r="2.5" fill="#64748b" opacity="0.72" stroke="none"/>
<circle cx="639.4" cy="118.5" r="2.5" fill="#dc2626" opacity="0.72" stroke="none"/>
<circle cx="642.3" cy="387.1" r="2.5" fill="#64748b" opacity="0.72" stroke="none"/>
<circle cx="645.2" cy="339.8" r="2.5" fill="#64748b" opacity="0.72" stroke="none"/>
<circle cx="648.2" cy="280.4" r="2.5" fill="#64748b" opacity="0.72" stroke="none"/>
<circle cx="651.1" cy="267.9" r="2.5" fill="#64748b" opacity="0.72" stroke="none"/>
<circle cx="654.0" cy="115.0" r="2.5" fill="#dc2626" opacity="0.72" stroke="none"/>
<circle cx="656.9" cy="396.6" r="2.5" fill="#64748b" opacity="0.72" stroke="none"/>
<circle cx="659.8" cy="185.5" r="2.5" fill="#64748b" opacity="0.72" stroke="none"/>
<circle cx="662.8" cy="254.4" r="2.5" fill="#64748b" opacity="0.72" stroke="none"/>
<circle cx="665.7" cy="243.9" r="2.5" fill="#64748b" opacity="0.72" stroke="none"/>
<circle cx="668.6" cy="238.4" r="2.5" fill="#64748b" opacity="0.72" stroke="none"/>
<circle cx="671.5" cy="97.6" r="2.5" fill="#dc2626" opacity="0.72" stroke="none"/>
<circle cx="674.5" cy="368.9" r="2.5" fill="#64748b" opacity="0.72" stroke="none"/>
<circle cx="677.4" cy="244.7" r="2.5" fill="#64748b" opacity="0.72" stroke="none"/>
<circle cx="680.3" cy="214.0" r="2.5" fill="#64748b" opacity="0.72" stroke="none"/>
<circle cx="683.2" cy="358.8" r="2.5" fill="#64748b" opacity="0.72" stroke="none"/>
<circle cx="686.2" cy="358.6" r="2.5" fill="#64748b" opacity="0.72" stroke="none"/>
<circle cx="689.1" cy="314.9" r="2.5" fill="#64748b" opacity="0.72" stroke="none"/>
<circle cx="692.0" cy="373.3" r="2.5" fill="#64748b" opacity="0.72" stroke="none"/>
<circle cx="694.9" cy="200.4" r="2.5" fill="#64748b" opacity="0.72" stroke="none"/>
<circle cx="697.8" cy="124.5" r="2.5" fill="#dc2626" opacity="0.72" stroke="none"/>
<circle cx="700.8" cy="199.8" r="2.5" fill="#64748b" opacity="0.72" stroke="none"/>
<circle cx="703.7" cy="278.5" r="2.5" fill="#64748b" opacity="0.72" stroke="none"/>
<circle cx="706.6" cy="335.9" r="2.5" fill="#64748b" opacity="0.72" stroke="none"/>
<circle cx="709.5" cy="319.7" r="2.5" fill="#64748b" opacity="0.72" stroke="none"/>
<circle cx="712.5" cy="287.2" r="2.5" fill="#64748b" opacity="0.72" stroke="none"/>
<circle cx="715.4" cy="278.3" r="2.5" fill="#64748b" opacity="0.72" stroke="none"/>
<circle cx="718.3" cy="298.5" r="2.5" fill="#64748b" opacity="0.72" stroke="none"/>
<circle cx="721.2" cy="270.2" r="2.5" fill="#64748b" opacity="0.72" stroke="none"/>
<circle cx="724.2" cy="96.7" r="2.5" fill="#dc2626" opacity="0.72" stroke="none"/>
<circle cx="727.1" cy="261.5" r="2.5" fill="#64748b" opacity="0.72" stroke="none"/>
<circle cx="730.0" cy="177.4" r="2.5" fill="#64748b" opacity="0.72" stroke="none"/>
<circle cx="732.9" cy="114.4" r="2.5" fill="#dc2626" opacity="0.72" stroke="none"/>
<circle cx="735.8" cy="281.8" r="2.5" fill="#64748b" opacity="0.72" stroke="none"/>
<circle cx="738.8" cy="352.7" r="2.5" fill="#64748b" opacity="0.72" stroke="none"/>
<circle cx="741.7" cy="179.6" r="2.5" fill="#64748b" opacity="0.72" stroke="none"/>
<circle cx="744.6" cy="299.7" r="2.5" fill="#64748b" opacity="0.72" stroke="none"/>
<circle cx="747.5" cy="286.0" r="2.5" fill="#64748b" opacity="0.72" stroke="none"/>
<circle cx="750.5" cy="303.2" r="2.5" fill="#64748b" opacity="0.72" stroke="none"/>
<circle cx="753.4" cy="362.3" r="2.5" fill="#64748b" opacity="0.72" stroke="none"/>
<circle cx="756.3" cy="307.7" r="2.5" fill="#64748b" opacity="0.72" stroke="none"/>
<circle cx="759.2" cy="116.7" r="2.5" fill="#dc2626" opacity="0.72" stroke="none"/>
<circle cx="762.2" cy="283.3" r="2.5" fill="#64748b" opacity="0.72" stroke="none"/>
<circle cx="765.1" cy="200.0" r="2.5" fill="#64748b" opacity="0.72" stroke="none"/>
<circle cx="768.0" cy="221.2" r="2.5" fill="#64748b" opacity="0.72" stroke="none"/>
<circle cx="770.9" cy="301.2" r="2.5" fill="#64748b" opacity="0.72" stroke="none"/>
<circle cx="773.8" cy="145.8" r="2.5" fill="#dc2626" opacity="0.72" stroke="none"/>
<circle cx="776.8" cy="286.4" r="2.5" fill="#64748b" opacity="0.72" stroke="none"/>
<circle cx="779.7" cy="382.9" r="2.5" fill="#64748b" opacity="0.72" stroke="none"/>
<circle cx="782.6" cy="115.7" r="2.5" fill="#dc2626" opacity="0.72" stroke="none"/>
<circle cx="785.5" cy="356.0" r="2.5" fill="#64748b" opacity="0.72" stroke="none"/>
<circle cx="788.5" cy="311.5" r="2.5" fill="#64748b" opacity="0.72" stroke="none"/>
<circle cx="791.4" cy="217.3" r="2.5" fill="#64748b" opacity="0.72" stroke="none"/>
<circle cx="794.3" cy="329.4" r="2.5" fill="#64748b" opacity="0.72" stroke="none"/>
<circle cx="797.2" cy="116.6" r="2.5" fill="#dc2626" opacity="0.72" stroke="none"/>
<circle cx="800.2" cy="141.9" r="2.5" fill="#dc2626" opacity="0.72" stroke="none"/>
<circle cx="803.1" cy="401.3" r="2.5" fill="#64748b" opacity="0.72" stroke="none"/>
<circle cx="806.0" cy="284.8" r="2.5" fill="#64748b" opacity="0.72" stroke="none"/>
<circle cx="808.9" cy="144.0" r="2.5" fill="#dc2626" opacity="0.72" stroke="none"/>
<circle cx="811.8" cy="132.1" r="2.5" fill="#dc2626" opacity="0.72" stroke="none"/>
<circle cx="814.8" cy="230.5" r="2.5" fill="#64748b" opacity="0.72" stroke="none"/>
<circle cx="817.7" cy="261.4" r="2.5" fill="#64748b" opacity="0.72" stroke="none"/>
<circle cx="820.6" cy="398.8" r="2.5" fill="#64748b" opacity="0.72" stroke="none"/>
<circle cx="823.5" cy="149.7" r="2.5" fill="#dc2626" opacity="0.72" stroke="none"/>
<circle cx="826.5" cy="289.1" r="2.5" fill="#64748b" opacity="0.72" stroke="none"/>
<circle cx="829.4" cy="228.5" r="2.5" fill="#64748b" opacity="0.72" stroke="none"/>
<circle cx="832.3" cy="264.7" r="2.5" fill="#64748b" opacity="0.72" stroke="none"/>
<circle cx="835.2" cy="383.9" r="2.5" fill="#64748b" opacity="0.72" stroke="none"/>
<circle cx="838.2" cy="128.7" r="2.5" fill="#dc2626" opacity="0.72" stroke="none"/>
<circle cx="841.1" cy="350.9" r="2.5" fill="#64748b" opacity="0.72" stroke="none"/>
<rect x="880.0" y="112.0" width="210.0" height="205.0" rx="8.0" fill="white" stroke="#d9e2ec" stroke-width="1.3"/>
<text x="910.0" y="150.0" class="label" text-anchor="start">Teaching cue</text>
<text x="910.0" y="183.0" class="small" text-anchor="start">With a million tests,</text>
<text x="910.0" y="207.0" class="small" text-anchor="start">nominal p &lt; 0.05</text>
<text x="910.0" y="231.0" class="small" text-anchor="start">creates many false</text>
<text x="910.0" y="255.0" class="small" text-anchor="start">discoveries by chance.</text>
<text x="910.0" y="290.0" class="small" text-anchor="start">Control the family</text>
<text x="910.0" y="314.0" class="small" text-anchor="start">of tests, not one test.</text>
</svg>
