<svg xmlns="http://www.w3.org/2000/svg" width="1120" height="540" viewBox="0 0 1120 540" role="img">
  <style>
    .title { font: 700 22px Arial, sans-serif; fill: #1f2933; }
    .label { font: 600 14px Arial, sans-serif; fill: #1f2933; }
    .small { font: 12px Arial, sans-serif; fill: #52616b; }
    .axis { stroke: #1f2933; stroke-width: 1.4; }
    .grid { stroke: #d9e2ec; stroke-width: 1; }
    .box { fill: white; stroke: #d9e2ec; stroke-width: 1.3; rx: 8; }
    .arrow { stroke: #52616b; stroke-width: 2; fill: none; marker-end: url(#arrowhead); }
  </style>
  <defs>
    <marker id="arrowhead" markerWidth="8" markerHeight="8" refX="7" refY="3.5" orient="auto">
      <polygon points="0 0, 8 3.5, 0 7" fill="#52616b"/>
    </marker>
  </defs>
  <rect width="100%" height="100%" fill="#f8fafc"/>
<text x="34.0" y="40.0" class="title" text-anchor="start">Regional association plot: from lead SNP to locus</text>
<line x1="82.0" y1="393.0" x2="842.0" y2="393.0" class="axis"/>
<line x1="82.0" y1="393.0" x2="82.0" y2="78.0" class="axis"/>
<line x1="82.0" y1="330.0" x2="842.0" y2="330.0" class="grid"/>
<line x1="82.0" y1="267.0" x2="842.0" y2="267.0" class="grid"/>
<line x1="82.0" y1="204.0" x2="842.0" y2="204.0" class="grid"/>
<line x1="82.0" y1="141.0" x2="842.0" y2="141.0" class="grid"/>
<circle cx="82.0" cy="385.0" r="4.0" fill="#2563eb" opacity="0.78" stroke="none"/>
<circle cx="86.5" cy="89.1" r="4.0" fill="#2563eb" opacity="0.78" stroke="none"/>
<circle cx="91.0" cy="386.2" r="4.0" fill="#2563eb" opacity="0.78" stroke="none"/>
<circle cx="95.5" cy="370.5" r="4.0" fill="#2563eb" opacity="0.78" stroke="none"/>
<circle cx="100.0" cy="379.0" r="4.0" fill="#2563eb" opacity="0.78" stroke="none"/>
<circle cx="104.5" cy="372.6" r="4.0" fill="#2563eb" opacity="0.78" stroke="none"/>
<circle cx="109.0" cy="250.6" r="4.0" fill="#2563eb" opacity="0.78" stroke="none"/>
<circle cx="113.5" cy="256.7" r="4.0" fill="#2563eb" opacity="0.78" stroke="none"/>
<circle cx="118.0" cy="390.4" r="4.0" fill="#2563eb" opacity="0.78" stroke="none"/>
<circle cx="122.5" cy="345.9" r="4.0" fill="#2563eb" opacity="0.78" stroke="none"/>
<circle cx="127.0" cy="381.8" r="4.0" fill="#2563eb" opacity="0.78" stroke="none"/>
<circle cx="131.5" cy="346.7" r="4.0" fill="#2563eb" opacity="0.78" stroke="none"/>
<circle cx="136.0" cy="314.3" r="4.0" fill="#2563eb" opacity="0.78" stroke="none"/>
<circle cx="140.5" cy="348.8" r="4.0" fill="#2563eb" opacity="0.78" stroke="none"/>
<circle cx="145.0" cy="342.8" r="4.0" fill="#2563eb" opacity="0.78" stroke="none"/>
<circle cx="149.5" cy="226.8" r="4.0" fill="#2563eb" opacity="0.78" stroke="none"/>
<circle cx="154.0" cy="312.6" r="4.0" fill="#2563eb" opacity="0.78" stroke="none"/>
<circle cx="158.4" cy="337.3" r="4.0" fill="#2563eb" opacity="0.78" stroke="none"/>
<circle cx="162.9" cy="300.7" r="4.0" fill="#2563eb" opacity="0.78" stroke="none"/>
<circle cx="167.4" cy="382.2" r="4.0" fill="#2563eb" opacity="0.78" stroke="none"/>
<circle cx="171.9" cy="352.8" r="4.0" fill="#2563eb" opacity="0.78" stroke="none"/>
<circle cx="176.4" cy="255.8" r="4.0" fill="#2563eb" opacity="0.78" stroke="none"/>
<circle cx="180.9" cy="354.4" r="4.0" fill="#2563eb" opacity="0.78" stroke="none"/>
<circle cx="185.4" cy="335.7" r="4.0" fill="#2563eb" opacity="0.78" stroke="none"/>
<circle cx="189.9" cy="373.6" r="4.0" fill="#2563eb" opacity="0.78" stroke="none"/>
<circle cx="194.4" cy="346.7" r="4.0" fill="#2563eb" opacity="0.78" stroke="none"/>
<circle cx="198.9" cy="345.1" r="4.0" fill="#2563eb" opacity="0.78" stroke="none"/>
<circle cx="203.4" cy="362.9" r="4.0" fill="#2563eb" opacity="0.78" stroke="none"/>
<circle cx="207.9" cy="353.2" r="4.0" fill="#2563eb" opacity="0.78" stroke="none"/>
<circle cx="212.4" cy="93.9" r="4.0" fill="#2563eb" opacity="0.78" stroke="none"/>
<circle cx="216.9" cy="363.1" r="4.0" fill="#2563eb" opacity="0.78" stroke="none"/>
<circle cx="221.4" cy="252.6" r="4.0" fill="#2563eb" opacity="0.78" stroke="none"/>
<circle cx="225.9" cy="355.0" r="4.0" fill="#2563eb" opacity="0.78" stroke="none"/>
<circle cx="230.4" cy="387.6" r="4.0" fill="#2563eb" opacity="0.78" stroke="none"/>
<circle cx="234.9" cy="383.0" r="4.0" fill="#2563eb" opacity="0.78" stroke="none"/>
<circle cx="239.4" cy="370.3" r="4.0" fill="#2563eb" opacity="0.78" stroke="none"/>
<circle cx="243.9" cy="369.6" r="4.0" fill="#2563eb" opacity="0.78" stroke="none"/>
<circle cx="248.4" cy="391.0" r="4.0" fill="#2563eb" opacity="0.78" stroke="none"/>
<circle cx="252.9" cy="308.9" r="4.0" fill="#2563eb" opacity="0.78" stroke="none"/>
<circle cx="257.4" cy="381.1" r="4.0" fill="#2563eb" opacity="0.78" stroke="none"/>
<circle cx="261.9" cy="390.2" r="4.0" fill="#2563eb" opacity="0.78" stroke="none"/>
<circle cx="266.4" cy="299.8" r="4.0" fill="#2563eb" opacity="0.78" stroke="none"/>
<circle cx="270.9" cy="359.0" r="4.0" fill="#2563eb" opacity="0.78" stroke="none"/>
<circle cx="275.4" cy="354.0" r="4.0" fill="#2563eb" opacity="0.78" stroke="none"/>
<circle cx="279.9" cy="346.5" r="4.0" fill="#2563eb" opacity="0.78" stroke="none"/>
<circle cx="284.4" cy="305.8" r="4.0" fill="#2563eb" opacity="0.78" stroke="none"/>
<circle cx="288.9" cy="323.8" r="4.0" fill="#2563eb" opacity="0.78" stroke="none"/>
<circle cx="293.4" cy="359.6" r="4.0" fill="#2563eb" opacity="0.78" stroke="none"/>
<circle cx="297.9" cy="283.3" r="4.0" fill="#2563eb" opacity="0.78" stroke="none"/>
<circle cx="302.4" cy="225.1" r="4.0" fill="#2563eb" opacity="0.78" stroke="none"/>
<circle cx="306.9" cy="356.3" r="4.0" fill="#2563eb" opacity="0.78" stroke="none"/>
<circle cx="311.3" cy="346.0" r="4.0" fill="#2563eb" opacity="0.78" stroke="none"/>
<circle cx="315.8" cy="318.4" r="4.0" fill="#2563eb" opacity="0.78" stroke="none"/>
<circle cx="320.3" cy="351.0" r="4.0" fill="#2563eb" opacity="0.78" stroke="none"/>
<circle cx="324.8" cy="197.0" r="4.0" fill="#2563eb" opacity="0.78" stroke="none"/>
<circle cx="329.3" cy="356.4" r="4.0" fill="#2563eb" opacity="0.78" stroke="none"/>
<circle cx="333.8" cy="348.5" r="4.0" fill="#2563eb" opacity="0.78" stroke="none"/>
<circle cx="338.3" cy="326.7" r="4.0" fill="#0f766e" opacity="0.78" stroke="none"/>
<circle cx="342.8" cy="349.0" r="4.0" fill="#0f766e" opacity="0.78" stroke="none"/>
<circle cx="347.3" cy="331.5" r="4.0" fill="#0f766e" opacity="0.78" stroke="none"/>
<circle cx="351.8" cy="274.2" r="4.0" fill="#0f766e" opacity="0.78" stroke="none"/>
<circle cx="356.3" cy="225.0" r="4.0" fill="#0f766e" opacity="0.78" stroke="none"/>
<circle cx="360.8" cy="322.8" r="4.0" fill="#0f766e" opacity="0.78" stroke="none"/>
<circle cx="365.3" cy="313.5" r="4.0" fill="#0f766e" opacity="0.78" stroke="none"/>
<circle cx="369.8" cy="298.9" r="4.0" fill="#0f766e" opacity="0.78" stroke="none"/>
<circle cx="374.3" cy="250.9" r="4.0" fill="#0f766e" opacity="0.78" stroke="none"/>
<circle cx="378.8" cy="275.6" r="4.0" fill="#d97706" opacity="0.78" stroke="none"/>
<circle cx="383.3" cy="307.7" r="4.0" fill="#0f766e" opacity="0.78" stroke="none"/>
<circle cx="387.8" cy="313.7" r="4.0" fill="#0f766e" opacity="0.78" stroke="none"/>
<circle cx="392.3" cy="290.2" r="4.0" fill="#d97706" opacity="0.78" stroke="none"/>
<circle cx="396.8" cy="232.6" r="4.0" fill="#d97706" opacity="0.78" stroke="none"/>
<circle cx="401.3" cy="276.8" r="4.0" fill="#0f766e" opacity="0.78" stroke="none"/>
<circle cx="405.8" cy="287.9" r="4.0" fill="#d97706" opacity="0.78" stroke="none"/>
<circle cx="410.3" cy="289.0" r="4.0" fill="#d97706" opacity="0.78" stroke="none"/>
<circle cx="414.8" cy="276.7" r="4.0" fill="#d97706" opacity="0.78" stroke="none"/>
<circle cx="419.3" cy="89.1" r="4.0" fill="#d97706" opacity="0.78" stroke="none"/>
<circle cx="423.8" cy="252.4" r="4.0" fill="#d97706" opacity="0.78" stroke="none"/>
<circle cx="428.3" cy="265.9" r="4.0" fill="#d97706" opacity="0.78" stroke="none"/>
<circle cx="432.8" cy="171.4" r="4.0" fill="#d97706" opacity="0.78" stroke="none"/>
<circle cx="437.3" cy="255.8" r="4.0" fill="#dc2626" opacity="0.78" stroke="none"/>
<circle cx="441.8" cy="213.9" r="4.0" fill="#d97706" opacity="0.78" stroke="none"/>
<circle cx="446.3" cy="185.7" r="4.0" fill="#d97706" opacity="0.78" stroke="none"/>
<circle cx="450.8" cy="199.9" r="4.0" fill="#dc2626" opacity="0.78" stroke="none"/>
<circle cx="455.3" cy="157.5" r="4.0" fill="#dc2626" opacity="0.78" stroke="none"/>
<circle cx="459.8" cy="237.3" r="4.0" fill="#dc2626" opacity="0.78" stroke="none"/>
<circle cx="464.2" cy="243.7" r="4.0" fill="#dc2626" opacity="0.78" stroke="none"/>
<circle cx="468.7" cy="191.4" r="4.0" fill="#dc2626" opacity="0.78" stroke="none"/>
<circle cx="473.2" cy="140.5" r="4.0" fill="#dc2626" opacity="0.78" stroke="none"/>
<circle cx="477.7" cy="205.7" r="4.0" fill="#dc2626" opacity="0.78" stroke="none"/>
<circle cx="482.2" cy="123.6" r="4.0" fill="#dc2626" opacity="0.78" stroke="none"/>
<circle cx="486.7" cy="191.0" r="4.0" fill="#dc2626" opacity="0.78" stroke="none"/>
<circle cx="491.2" cy="205.4" r="4.0" fill="#dc2626" opacity="0.78" stroke="none"/>
<circle cx="495.7" cy="228.0" r="4.0" fill="#dc2626" opacity="0.78" stroke="none"/>
<circle cx="500.2" cy="205.3" r="4.0" fill="#dc2626" opacity="0.78" stroke="none"/>
<circle cx="504.7" cy="89.1" r="4.0" fill="#dc2626" opacity="0.78" stroke="none"/>
<circle cx="509.2" cy="192.0" r="4.0" fill="#dc2626" opacity="0.78" stroke="none"/>
<circle cx="513.7" cy="165.3" r="4.0" fill="#dc2626" opacity="0.78" stroke="none"/>
<circle cx="518.2" cy="152.1" r="4.0" fill="#dc2626" opacity="0.78" stroke="none"/>
<circle cx="522.7" cy="94.0" r="4.0" fill="#dc2626" opacity="0.78" stroke="none"/>
<circle cx="527.2" cy="144.2" r="4.0" fill="#dc2626" opacity="0.78" stroke="none"/>
<circle cx="531.7" cy="224.6" r="4.0" fill="#dc2626" opacity="0.78" stroke="none"/>
<circle cx="536.2" cy="250.4" r="4.0" fill="#dc2626" opacity="0.78" stroke="none"/>
<circle cx="540.7" cy="101.5" r="4.0" fill="#dc2626" opacity="0.78" stroke="none"/>
<circle cx="545.2" cy="210.2" r="4.0" fill="#dc2626" opacity="0.78" stroke="none"/>
<circle cx="549.7" cy="181.0" r="4.0" fill="#dc2626" opacity="0.78" stroke="none"/>
<circle cx="554.2" cy="89.1" r="4.0" fill="#d97706" opacity="0.78" stroke="none"/>
<circle cx="558.7" cy="179.7" r="4.0" fill="#dc2626" opacity="0.78" stroke="none"/>
<circle cx="563.2" cy="168.2" r="4.0" fill="#dc2626" opacity="0.78" stroke="none"/>
<circle cx="567.7" cy="245.8" r="4.0" fill="#d97706" opacity="0.78" stroke="none"/>
<circle cx="572.2" cy="268.8" r="4.0" fill="#d97706" opacity="0.78" stroke="none"/>
<circle cx="576.7" cy="157.2" r="4.0" fill="#d97706" opacity="0.78" stroke="none"/>
<circle cx="581.2" cy="288.9" r="4.0" fill="#d97706" opacity="0.78" stroke="none"/>
<circle cx="585.7" cy="287.5" r="4.0" fill="#d97706" opacity="0.78" stroke="none"/>
<circle cx="590.2" cy="271.1" r="4.0" fill="#d97706" opacity="0.78" stroke="none"/>
<circle cx="594.7" cy="271.5" r="4.0" fill="#d97706" opacity="0.78" stroke="none"/>
<circle cx="599.2" cy="277.9" r="4.0" fill="#d97706" opacity="0.78" stroke="none"/>
<circle cx="603.7" cy="271.2" r="4.0" fill="#d97706" opacity="0.78" stroke="none"/>
<circle cx="608.2" cy="192.7" r="4.0" fill="#d97706" opacity="0.78" stroke="none"/>
<circle cx="612.7" cy="268.1" r="4.0" fill="#d97706" opacity="0.78" stroke="none"/>
<circle cx="617.1" cy="170.3" r="4.0" fill="#0f766e" opacity="0.78" stroke="none"/>
<circle cx="621.6" cy="303.3" r="4.0" fill="#0f766e" opacity="0.78" stroke="none"/>
<circle cx="626.1" cy="319.3" r="4.0" fill="#0f766e" opacity="0.78" stroke="none"/>
<circle cx="630.6" cy="323.2" r="4.0" fill="#0f766e" opacity="0.78" stroke="none"/>
<circle cx="635.1" cy="89.1" r="4.0" fill="#0f766e" opacity="0.78" stroke="none"/>
<circle cx="639.6" cy="314.1" r="4.0" fill="#0f766e" opacity="0.78" stroke="none"/>
<circle cx="644.1" cy="250.7" r="4.0" fill="#0f766e" opacity="0.78" stroke="none"/>
<circle cx="648.6" cy="335.4" r="4.0" fill="#0f766e" opacity="0.78" stroke="none"/>
<circle cx="653.1" cy="323.5" r="4.0" fill="#0f766e" opacity="0.78" stroke="none"/>
<circle cx="657.6" cy="285.8" r="4.0" fill="#0f766e" opacity="0.78" stroke="none"/>
<circle cx="662.1" cy="299.4" r="4.0" fill="#0f766e" opacity="0.78" stroke="none"/>
<circle cx="666.6" cy="309.1" r="4.0" fill="#2563eb" opacity="0.78" stroke="none"/>
<circle cx="671.1" cy="288.4" r="4.0" fill="#0f766e" opacity="0.78" stroke="none"/>
<circle cx="675.6" cy="349.0" r="4.0" fill="#2563eb" opacity="0.78" stroke="none"/>
<circle cx="680.1" cy="378.6" r="4.0" fill="#2563eb" opacity="0.78" stroke="none"/>
<circle cx="684.6" cy="349.8" r="4.0" fill="#2563eb" opacity="0.78" stroke="none"/>
<circle cx="689.1" cy="350.3" r="4.0" fill="#2563eb" opacity="0.78" stroke="none"/>
<circle cx="693.6" cy="324.4" r="4.0" fill="#2563eb" opacity="0.78" stroke="none"/>
<circle cx="698.1" cy="375.0" r="4.0" fill="#2563eb" opacity="0.78" stroke="none"/>
<circle cx="702.6" cy="322.9" r="4.0" fill="#2563eb" opacity="0.78" stroke="none"/>
<circle cx="707.1" cy="378.5" r="4.0" fill="#2563eb" opacity="0.78" stroke="none"/>
<circle cx="711.6" cy="242.3" r="4.0" fill="#2563eb" opacity="0.78" stroke="none"/>
<circle cx="716.1" cy="366.1" r="4.0" fill="#2563eb" opacity="0.78" stroke="none"/>
<circle cx="720.6" cy="382.8" r="4.0" fill="#2563eb" opacity="0.78" stroke="none"/>
<circle cx="725.1" cy="260.9" r="4.0" fill="#2563eb" opacity="0.78" stroke="none"/>
<circle cx="729.6" cy="301.3" r="4.0" fill="#2563eb" opacity="0.78" stroke="none"/>
<circle cx="734.1" cy="285.5" r="4.0" fill="#2563eb" opacity="0.78" stroke="none"/>
<circle cx="738.6" cy="379.5" r="4.0" fill="#2563eb" opacity="0.78" stroke="none"/>
<circle cx="743.1" cy="332.4" r="4.0" fill="#2563eb" opacity="0.78" stroke="none"/>
<circle cx="747.6" cy="344.2" r="4.0" fill="#2563eb" opacity="0.78" stroke="none"/>
<circle cx="752.1" cy="350.3" r="4.0" fill="#2563eb" opacity="0.78" stroke="none"/>
<circle cx="756.6" cy="308.3" r="4.0" fill="#2563eb" opacity="0.78" stroke="none"/>
<circle cx="761.1" cy="187.3" r="4.0" fill="#2563eb" opacity="0.78" stroke="none"/>
<circle cx="765.6" cy="379.3" r="4.0" fill="#2563eb" opacity="0.78" stroke="none"/>
<circle cx="770.0" cy="385.7" r="4.0" fill="#2563eb" opacity="0.78" stroke="none"/>
<circle cx="774.5" cy="390.5" r="4.0" fill="#2563eb" opacity="0.78" stroke="none"/>
<circle cx="779.0" cy="373.5" r="4.0" fill="#2563eb" opacity="0.78" stroke="none"/>
<circle cx="783.5" cy="385.8" r="4.0" fill="#2563eb" opacity="0.78" stroke="none"/>
<circle cx="788.0" cy="326.7" r="4.0" fill="#2563eb" opacity="0.78" stroke="none"/>
<circle cx="792.5" cy="385.6" r="4.0" fill="#2563eb" opacity="0.78" stroke="none"/>
<circle cx="797.0" cy="337.6" r="4.0" fill="#2563eb" opacity="0.78" stroke="none"/>
<circle cx="801.5" cy="392.5" r="4.0" fill="#2563eb" opacity="0.78" stroke="none"/>
<circle cx="806.0" cy="305.4" r="4.0" fill="#2563eb" opacity="0.78" stroke="none"/>
<circle cx="810.5" cy="243.4" r="4.0" fill="#2563eb" opacity="0.78" stroke="none"/>
<circle cx="815.0" cy="383.7" r="4.0" fill="#2563eb" opacity="0.78" stroke="none"/>
<circle cx="819.5" cy="368.5" r="4.0" fill="#2563eb" opacity="0.78" stroke="none"/>
<circle cx="824.0" cy="382.8" r="4.0" fill="#2563eb" opacity="0.78" stroke="none"/>
<circle cx="828.5" cy="356.2" r="4.0" fill="#2563eb" opacity="0.78" stroke="none"/>
<circle cx="833.0" cy="361.9" r="4.0" fill="#2563eb" opacity="0.78" stroke="none"/>
<circle cx="837.5" cy="329.7" r="4.0" fill="#2563eb" opacity="0.78" stroke="none"/>
<circle cx="842.0" cy="379.3" r="4.0" fill="#2563eb" opacity="0.78" stroke="none"/>
<circle cx="500.0" cy="96.5" r="7.0" fill="#dc2626" opacity="1.00" stroke="#1f2933"/>
<text x="512.0" y="84.5" class="label" text-anchor="start">lead SNP</text>
<text x="462.0" y="426.0" class="small" text-anchor="middle">Genomic position near locus</text>
<text x="36.0" y="230.0" class="small" text-anchor="start">-log10(p)</text>
<text x="84.0" y="438.0" class="label" text-anchor="start">Gene track</text>
<rect x="130" y="460" width="100" height="14" fill="#64748b" opacity="0.82"/>
<polygon points="230,455 246,467 230,479" fill="#64748b" opacity="0.82"/>
<text x="180.0" y="500.0" class="small" text-anchor="middle">GENE1</text>
<rect x="300" y="460" width="220" height="14" fill="#0f766e" opacity="0.82"/>
<polygon points="520,455 536,467 520,479" fill="#0f766e" opacity="0.82"/>
<text x="410.0" y="500.0" class="small" text-anchor="middle">GENE2</text>
<rect x="570" y="460" width="210" height="14" fill="#7c3aed" opacity="0.82"/>
<polygon points="780,455 796,467 780,479" fill="#7c3aed" opacity="0.82"/>
<text x="675.0" y="500.0" class="small" text-anchor="middle">GENE3</text>
<rect x="880.0" y="110.0" width="210.0" height="250.0" rx="8.0" fill="white" stroke="#d9e2ec" stroke-width="1.3"/>
<text x="908.0" y="145.0" class="label" text-anchor="start">Interpretation</text>
<text x="908.0" y="177.0" class="small" text-anchor="start">Color shows LD with</text>
<text x="908.0" y="200.0" class="small" text-anchor="start">the lead variant.</text>
<text x="908.0" y="230.0" class="small" text-anchor="start">The nearest gene is</text>
<text x="908.0" y="253.0" class="small" text-anchor="start">only a hypothesis.</text>
<text x="908.0" y="283.0" class="small" text-anchor="start">Use annotation,</text>
<text x="908.0" y="306.0" class="small" text-anchor="start">fine mapping, and</text>
<text x="908.0" y="329.0" class="small" text-anchor="start">replication.</text>
</svg>
